<?xml version="1.0" standalone="no"?>
<!DOCTYPE svg PUBLIC "-//W3C//DTD SVG 20010904//EN"
 "http://www.w3.org/TR/2001/REC-SVG-20010904/DTD/svg10.dtd">
<svg version="1.0" xmlns="http://www.w3.org/2000/svg"
 width="1024.000000pt" height="1024.000000pt" viewBox="0 0 1024.000000 1024.000000"
 preserveAspectRatio="xMidYMid meet">
<metadata>
Created by potrace 1.11, written by Peter Selinger 2001-2013
</metadata>
<g transform="translate(0.000000,1024.000000) scale(0.100000,-0.100000)"
fill="#000000" stroke="none">
<path d="M0 5120 l0 -5120 5120 0 5120 0 0 5120 0 5120 -5120 0 -5120 0 0
-5120z m3606 2915 c112 -20 176 -38 288 -83 l89 -35 -6 -83 c-11 -156 -74
-290 -192 -409 -112 -113 -282 -206 -457 -252 l-68 -17 0 -40 c0 -98 85 -188
255 -271 219 -108 517 -172 1025 -220 1329 -125 1999 -305 2474 -663 305 -229
635 -637 815 -1006 216 -444 279 -897 195 -1401 -104 -629 -451 -1078 -970
-1258 -328 -114 -724 -128 -1004 -37 -328 107 -570 349 -667 667 -22 75 -26
107 -27 218 -1 107 3 144 22 210 70 240 247 410 502 481 99 28 284 25 370 -5
144 -50 273 -159 332 -279 28 -57 33 -77 33 -142 0 -65 -4 -85 -33 -143 -49
-98 -149 -173 -259 -193 l-38 -7 49 35 c87 60 144 165 130 239 -24 126 -152
209 -324 209 -247 0 -399 -172 -363 -410 28 -180 159 -332 350 -407 63 -25 79
-27 213 -27 116 0 162 4 234 22 182 46 319 124 434 247 170 183 252 434 252
776 0 221 -32 378 -113 554 -227 493 -579 744 -1142 815 -316 40 -543 -11
-754 -170 -163 -123 -334 -365 -407 -577 -11 -29 -24 -53 -30 -53 -13 0 -134
140 -182 212 -120 178 -191 432 -180 639 3 49 4 89 3 89 -1 0 -32 -11 -67 -24
-144 -54 -312 -69 -472 -41 -213 37 -444 153 -723 362 -134 101 -172 118 -236
108 -187 -31 -280 -175 -309 -483 -11 -114 -4 -293 18 -487 l5 -40 -83 86
c-189 197 -316 416 -380 656 -20 76 -23 110 -22 248 1 184 19 270 80 392 63
125 188 235 299 264 22 5 46 12 52 14 9 3 2 23 -22 64 -51 86 -110 239 -142
366 -25 100 -28 127 -28 295 0 164 3 194 23 265 48 166 145 321 289 462 156
152 349 248 558 276 74 10 230 6 311 -8z"/>
<path d="M3121 7785 c-53 -31 -68 -49 -77 -91 -16 -85 84 -131 183 -83 119 57
110 185 -14 196 -38 3 -57 -1 -92 -22z"/>
</g>
</svg>
