<svg enable-background="new 0 0 955.22 344.19" viewBox="0 0 955.22 344.19" xmlns="http://www.w3.org/2000/svg" xmlns:xlink="http://www.w3.org/1999/xlink"><linearGradient id="a" gradientUnits="userSpaceOnUse" x1="31.8638" x2="167.2257" y1="130.0738" y2="130.0738"><stop offset=".00000013319" stop-color="#50d296"/><stop offset="1" stop-color="#91e6c8"/></linearGradient><linearGradient id="b"><stop offset=".00000020246" stop-color="#50d296"/><stop offset="1" stop-color="#91e6c8"/></linearGradient><linearGradient id="c" gradientUnits="userSpaceOnUse" x1="131.7654" x2="243.7112" xlink:href="#b" y1="241.687" y2="241.687"/><linearGradient id="d" gradientUnits="userSpaceOnUse" x1="165.8443" x2="171.5692" xlink:href="#b" y1="160.3409" y2="160.3409"/><linearGradient id="e"><stop offset=".00000013319" stop-color="#17C77F"/><stop offset="1" stop-color="#41c387"/></linearGradient><linearGradient id="f" gradientUnits="userSpaceOnUse" x1="87.4218" x2="203.8457" xlink:href="#e" y1="181.2896" y2="181.2896"/><linearGradient id="g" gradientUnits="userSpaceOnUse" x1="32.448" x2="71.2122" xlink:href="#e" y1="204.8443" y2="204.8443"/><g fill="#fff"><path d="m342.38 179.28-13.41 14.32v31.72h-35.53v-126.88h35.53v52.75l49.12-52.75h39.51l-51.84 56.19 54.56 70.69h-41.69z"/><path d="m522.18 127.07v98.24h-32.81v-9.79c-6.41 7.61-16.07 11.42-29 11.42-8.94 0-17.07-2.08-24.38-6.25s-13.11-10.12-17.4-17.85-6.43-16.68-6.43-26.83 2.14-19.06 6.43-26.74c4.29-7.67 10.09-13.56 17.4-17.67s15.44-6.16 24.38-6.16c11.6 0 20.72 3.38 27.37 10.15v-8.52zm-39.69 66.25c3.87-4.17 5.8-9.94 5.8-17.31 0-7.25-1.93-12.93-5.8-17.04s-8.82-6.16-14.86-6.16-11 2.06-14.86 6.16c-3.87 4.11-5.8 9.79-5.8 17.04 0 7.37 1.93 13.14 5.8 17.31s8.82 6.25 14.86 6.25c6.04.01 10.99-2.08 14.86-6.25z"/><path d="m626.66 131.6c7.31 4.11 13.11 10 17.4 17.67s6.44 16.58 6.44 26.74-2.15 19.09-6.44 26.83c-4.29 7.73-10.09 13.68-17.4 17.85s-15.44 6.25-24.38 6.25c-12.93 0-22.6-3.81-29-11.42v9.79h-32.81v-134.49h34.44v44.77c6.64-6.77 15.77-10.15 27.37-10.15 8.94 0 17.07 2.06 24.38 6.16zm-16.77 61.72c3.87-4.17 5.8-9.94 5.8-17.31 0-7.25-1.93-12.93-5.8-17.04s-8.82-6.16-14.86-6.16-11 2.06-14.86 6.16c-3.87 4.11-5.8 9.79-5.8 17.04 0 7.37 1.93 13.14 5.8 17.31s8.82 6.25 14.86 6.25c6.04.01 10.99-2.08 14.86-6.25z"/><path d="m664.45 110.94c-3.87-3.5-5.8-7.85-5.8-13.05 0-5.19 1.93-9.54 5.8-13.05 3.87-3.5 8.94-5.26 15.22-5.26s11.36 1.66 15.23 4.98c3.87 3.33 5.8 7.58 5.8 12.78 0 5.44-1.93 9.94-5.8 13.5-3.87 3.57-8.95 5.35-15.23 5.35-6.28.01-11.35-1.74-15.22-5.25zm-1.99 16.13h34.44v98.24h-34.44z"/><path d="m727.8 224.14c-7.97-1.87-14.38-4.32-19.21-7.34l10.33-23.56c4.47 2.78 9.79 4.98 15.95 6.62 6.16 1.63 12.26 2.45 18.31 2.45 5.56 0 9.52-.57 11.87-1.72 2.36-1.15 3.53-2.81 3.53-4.99 0-2.17-1.42-3.72-4.26-4.62-2.84-.91-7.34-1.78-13.5-2.63-7.86-.97-14.53-2.23-20.03-3.81-5.5-1.57-10.24-4.47-14.23-8.7s-5.98-10.15-5.98-17.76c0-6.28 1.87-11.87 5.62-16.77 3.74-4.89 9.21-8.76 16.4-11.6s15.8-4.26 25.83-4.26c7.13 0 14.2.72 21.21 2.17s12.87 3.51 17.58 6.16l-10.33 23.38c-8.7-4.83-18.12-7.25-28.28-7.25-5.44 0-9.43.63-11.96 1.9-2.54 1.27-3.81 2.93-3.81 4.98 0 2.3 1.39 3.9 4.17 4.8 2.78.91 7.37 1.84 13.78 2.81 8.09 1.21 14.8 2.6 20.12 4.17s9.94 4.44 13.87 8.61 5.89 10 5.89 17.49c0 6.16-1.88 11.69-5.62 16.58-3.75 4.89-9.28 8.73-16.59 11.51s-16.1 4.17-26.37 4.17c-8.22.02-16.32-.92-24.29-2.79z"/><path d="m916.19 127.07v98.24h-32.81v-9.79c-6.41 7.61-16.07 11.42-29 11.42-8.94 0-17.07-2.08-24.38-6.25s-13.11-10.12-17.4-17.85-6.44-16.68-6.44-26.83 2.14-19.06 6.44-26.74c4.29-7.67 10.09-13.56 17.4-17.67s15.44-6.16 24.38-6.16c11.6 0 20.72 3.38 27.37 10.15v-8.52zm-39.69 66.25c3.87-4.17 5.8-9.94 5.8-17.31 0-7.25-1.93-12.93-5.8-17.04s-8.82-6.16-14.86-6.16-11 2.06-14.86 6.16c-3.87 4.11-5.8 9.79-5.8 17.04 0 7.37 1.93 13.14 5.8 17.31s8.82 6.25 14.86 6.25c6.04.01 10.99-2.08 14.86-6.25z"/></g><path d="m79.33 40.22c-1 14.84-7.15 28.11-16.58 38.19-19.14 20.17-30.89 47.41-30.89 77.4 0 2.98.19 5.91.57 8.79v.09c.01.03.01.04.01.06 3.03 23.73 18.04 43.71 38.76 53.7 9.11 4.4 19.35 6.86 30.15 6.86 7.39 0 14.36-1.87 20.42-5.16-6.15-6.49-14.7-10.68-24.24-11.18.28 0 .57.01.85.04-14.68-27.87-15.1-62.35 1.55-91.39 0-.01.01-.03.01-.03.21-.4.44-.8.68-1.2.2-.36.43-.73.66-1.1.23-.38.47-.75.7-1.13 5.88-9.34 13.96-16.45 23.14-21.09.21-.11.44-.21.67-.33 10.41-5.1 20.11-12.1 28.55-21.01 5.75-6.05 10.03-12.96 12.86-20.29-26.23-17.38-58.88-21.12-87.87-11.22zm48.52 25.72c-4.63 0-8.39-3.75-8.39-8.37s3.76-8.37 8.39-8.37c4.61 0 8.37 3.75 8.37 8.37s-3.76 8.37-8.37 8.37z" fill="url(#a)"/><path d="m131.77 244.99c-.03-.01-.04-.03-.07-.04" fill="none"/><path d="m243.71 225c0 50.58-38.11 94.09-89.54 99.67 43.69-22.67 49.68-65.56 49.68-81.9 0-14.23-3.31-28.65-10.29-42.14-11.96-23.08-37.53-29.92-61.79-29.92 5.35 0 9.4-1.22 10.44-1.54 8.02-2.05 16.49-5.72 23.64-8.05 2.04-.66 3.96-1.2 5.72-1.57.15-.04 1.56-.3 3.19-.48 2.28-.25 4.54-.37 6.78-.37 24.67 0 62.17 17.73 62.17 66.3z" fill="url(#c)"/><path d="m171.57 159.56c-1.98.38-3.89.91-5.72 1.57" fill="url(#d)"/><path d="m203.85 242.77c0 .65-.01 1.29-.02 1.93-.14-19.8-16.22-35.79-36.06-35.79-20.02 0-36.07 16.25-36.07 36.03-14.58-9.2-25.79-21.69-33.28-35.92v-.01h-.02c-7.21-13.68-10.98-28.96-10.98-44.4 0-16.01 4.05-32.21 12.53-46.99-2.71 5.06-4.26 10.85-4.26 17 0 19.92 16.15 36.07 36.07 36.07 24.27 0 49.83 6.84 61.79 29.92 6.98 13.51 10.3 27.93 10.3 42.16z" fill="url(#f)"/><path d="m71.21 218.44c-7.16 6.58-11.64 16.02-11.65 26.5-.51-.81-1.01-1.61-1.51-2.42-.5-.83-1-1.65-1.48-2.48-.03-.06-.06-.1-.09-.14-.81-1.41-1.62-2.82-2.41-4.24-.11-.21-.23-.43-.36-.64-.06-.1-.11-.21-.17-.33-.85-1.6-1.69-3.19-2.51-4.8-.44-.87-.87-1.74-1.3-2.61-.41-.87-.83-1.74-1.24-2.62-.41-.87-.81-1.75-1.2-2.63-.4-.9-.78-1.78-1.17-2.68-.38-.88-.75-1.78-1.13-2.68-.03-.09-.06-.17-.1-.26-.6-1.48-1.17-2.95-1.72-4.44-.19-.47-.36-.93-.53-1.4-.06-.17-.13-.34-.19-.51-.27-.75-.54-1.5-.8-2.26l-.81-2.39c-.13-.36-.24-.71-.36-1.07-.21-.68-.43-1.37-.64-2.05-.01-.03-.01-.04-.03-.07-.07-.23-.14-.47-.21-.7-.21-.71-.43-1.41-.64-2.12-.06-.2-.11-.4-.17-.6-.21-.74-.43-1.48-.63-2.24-.26-.94-.51-1.89-.75-2.85-.26-.94-.48-1.89-.71-2.85-.23-.95-.46-1.91-.67-2.88-.21-.95-.41-1.91-.61-2.88-.28-1.35-.56-2.71-.8-4.07s-.47-2.73-.7-4.1c-.03-.17-.06-.36-.09-.53-.13-.81-.24-1.62-.36-2.45-.14-.98-.28-1.98-.4-2.98-.06-.46-.11-.91-.16-1.35-.09-.67-.16-1.34-.23-2.01-.1-.9-.19-1.78-.27-2.68 0-.07-.01-.14-.01-.21 3.08 23.75 18.09 43.73 38.81 53.72z" fill="url(#g)"/></svg>